<?xml version="1.0" encoding="UTF-8"?>
<svg version="1.1" xmlns="http://www.w3.org/2000/svg" width="512" height="512">
<path d="M0 0 C0.99868909 -0.00297112 1.99737819 -0.00594224 3.02633059 -0.0090034 C6.35908455 -0.01764635 9.69180239 -0.01919493 13.02456665 -0.02069092 C15.42015662 -0.02532233 17.81574585 -0.03034742 20.21133423 -0.03573608 C26.71186048 -0.04883371 33.21237985 -0.05533771 39.71291685 -0.05974674 C43.78023756 -0.06251761 47.84755591 -0.06675656 51.91487503 -0.07125092 C63.19913521 -0.08343966 74.48339352 -0.09373856 85.76766014 -0.09712601 C86.48888342 -0.09734557 87.2101067 -0.09756514 87.95318524 -0.09779136 C88.67603937 -0.09800964 89.39889351 -0.09822791 90.14365232 -0.09845281 C91.60818887 -0.09889626 93.07272542 -0.09934282 94.53726196 -0.09979248 C95.2637076 -0.10001391 95.99015323 -0.10023534 96.73861237 -0.10046348 C108.48858398 -0.10440477 120.23849332 -0.12184006 131.98844092 -0.145152 C144.08217627 -0.16895013 156.17588049 -0.18133175 168.26963961 -0.18249393 C175.04751456 -0.18340615 181.82530843 -0.18904286 188.60316086 -0.20731354 C194.98736375 -0.22388814 201.37141365 -0.2259044 207.75563049 -0.21717453 C210.08628883 -0.21640908 212.41695571 -0.22068117 214.74759293 -0.23063278 C258.07962913 -0.40465983 296.27158717 14.14096113 327.37026978 44.66778564 C335.82133285 53.25263113 342.72223089 62.77794547 348.81997681 73.14044189 C349.16657349 73.72519287 349.51317017 74.30994385 349.87026978 74.91241455 C362.01010239 95.68527045 368.98307225 119.22610484 368.9604187 143.32046509 C368.96487538 144.81849873 368.96487538 144.81849873 368.9694221 146.34679568 C368.97806505 149.67954963 368.97961363 153.01226748 368.98110962 156.34503174 C368.98574103 158.7406217 368.99076612 161.13621093 368.99615479 163.53179932 C369.00925242 170.03232557 369.01575642 176.53284494 369.02016544 183.03338194 C369.02293631 187.10070264 369.02717527 191.168021 369.03166962 195.23534012 C369.04385836 206.5196003 369.05415726 217.80385861 369.05754471 229.08812523 C369.05776427 229.80934851 369.05798384 230.53057179 369.05821006 231.27365033 C369.05842834 231.99650446 369.05864662 232.7193586 369.05887151 233.46411741 C369.05931496 234.92865396 369.05976152 236.3931905 369.06021118 237.85772705 C369.06043261 238.58417268 369.06065404 239.31061832 369.06088218 240.05907746 C369.06482347 251.80904907 369.08225876 263.55895841 369.1055707 275.308906 C369.12936883 287.40264135 369.14175045 299.49634558 369.14291263 311.5901047 C369.14382485 318.36797965 369.14946156 325.14577352 369.16773224 331.92362595 C369.18430684 338.30782883 369.1863231 344.69187874 369.17759323 351.07609558 C369.17682778 353.40675392 369.18109987 355.7374208 369.19105148 358.06805801 C369.36507853 401.40009422 354.81945758 439.59205226 324.29263306 470.69073486 C315.70778757 479.14179794 306.18247323 486.04269597 295.81997681 492.14044189 C295.23522583 492.48703857 294.65047485 492.83363525 294.04800415 493.19073486 C273.27514825 505.33056748 249.73431386 512.30353734 225.63995361 512.28088379 C224.64126452 512.28385491 223.64257542 512.28682603 222.61362302 512.28988719 C219.28086907 512.29853014 215.94815122 512.30007872 212.61538696 512.30157471 C210.219797 512.30620611 207.82420777 512.31123121 205.42861938 512.31661987 C198.92809313 512.3297175 192.42757376 512.3362215 185.92703676 512.34063053 C181.85971606 512.3434014 177.7923977 512.34764035 173.72507858 512.3521347 C162.4408184 512.36432345 151.15656009 512.37462235 139.87229347 512.3780098 C138.79045855 512.37833915 138.79045855 512.37833915 137.68676838 512.37867515 C136.96391424 512.37889343 136.2410601 512.3791117 135.49630129 512.3793366 C134.03176474 512.37978005 132.5672282 512.38022661 131.10269165 512.38067627 C130.37624602 512.3808977 129.64980038 512.38111913 128.90134124 512.38134727 C117.15136963 512.38528855 105.40146029 512.40272385 93.6515127 512.42603579 C81.55777735 512.44983392 69.46407312 512.46221554 57.370314 512.46337771 C50.59243905 512.46428994 43.81464518 512.46992664 37.03679276 512.48819733 C30.65258987 512.50477193 24.26853996 512.50678819 17.88432312 512.49805832 C15.55366478 512.49729287 13.2229979 512.50156496 10.89236069 512.51151657 C-32.43967552 512.68554362 -70.63163355 498.13992266 -101.73031616 467.61309814 C-110.18137924 459.02825266 -117.08227727 449.50293832 -123.18002319 439.14044189 C-123.52661987 438.55569092 -123.87321655 437.97093994 -124.23031616 437.36846924 C-139.15366328 411.83265263 -143.96888288 384.22270078 -143.82699585 354.93341064 C-143.83379502 352.5269607 -143.84271086 350.12051597 -143.85354614 347.71408081 C-143.87607264 341.2594098 -143.86761464 334.80514453 -143.85165071 328.35046768 C-143.84267249 324.30057544 -143.84447118 320.25073325 -143.84910202 316.20083618 C-143.84986819 315.52315191 -143.85063435 314.84546765 -143.85142373 314.14724749 C-143.85302277 312.7694531 -143.85464384 311.39165874 -143.85628669 310.0138644 C-143.87045789 297.17115175 -143.8542884 284.32861914 -143.82728486 271.48593605 C-143.80495393 260.5272569 -143.80883651 249.56884283 -143.83187866 238.61016846 C-143.85879081 225.80542442 -143.86908541 213.00083715 -143.85381734 200.19606876 C-143.85222502 198.82406174 -143.85065316 197.45205468 -143.84910202 196.08004761 C-143.84833064 195.40544076 -143.84755927 194.73083391 -143.84676451 194.03578442 C-143.84249339 189.33985864 -143.8498857 184.64406472 -143.86149979 179.94815063 C-143.87611257 173.59803788 -143.86562045 167.2484178 -143.8370285 160.89835739 C-143.83050645 158.58998806 -143.83215941 156.2815761 -143.84334183 153.97322464 C-144.02984188 111.50758545 -129.37532516 73.193066 -99.75082397 42.66778564 C-73.70742027 16.77431011 -36.88675524 -0.03468097 0 0 Z " fill="#126AD6" transform="translate(143.18002319335938,-0.14044189453125)"/>
<path d="M0 0 C1.12151459 0.00373123 1.12151459 0.00373123 2.26568604 0.00753784 C30.46458154 0.15249705 58.79342183 6.87197616 80.25 26.3125 C81.08015625 27.04984375 81.9103125 27.7871875 82.765625 28.546875 C97.41411402 42.29668371 104.97434475 59.53465073 107.25 79.3125 C107.25 82.2825 107.25 85.2525 107.25 88.3125 C84.81 88.3125 62.37 88.3125 39.25 88.3125 C37.27 79.8975 37.27 79.8975 35.25 71.3125 C33.19592392 67.91880909 31.94213102 65.90993294 29.25 63.3125 C28.3425 62.405 27.435 61.4975 26.5 60.5625 C14.72807522 52.41270592 1.06293222 52.30707633 -12.75 53.3125 C-16.81868417 54.10539502 -20.12383975 55.32895935 -23.75 57.3125 C-24.55566406 57.725 -25.36132812 58.1375 -26.19140625 58.5625 C-32.30894829 62.11006968 -36.26944976 66.65713692 -38.75 73.3125 C-40.0231435 80.88227569 -39.07057494 87.90011933 -34.75 94.3125 C-23.40399877 108.34973603 -1.24544368 113.6279477 14.96386719 119.18408203 C49.17675267 130.93237005 83.45876563 145.03538662 100.6640625 179.11328125 C109.50008613 197.79294524 109.95800928 221.37178335 103.125 240.8125 C95.2608379 259.96996465 80.1368132 273.86534416 61.375 282.0625 C59.34319382 282.83881593 57.30068954 283.58753435 55.25 284.3125 C54.07308594 284.74304688 52.89617187 285.17359375 51.68359375 285.6171875 C21.82236999 296.05557263 -13.59401558 295.19106979 -43.75 286.3125 C-44.9565625 285.97605469 -46.163125 285.63960938 -47.40625 285.29296875 C-61.99295138 280.88267336 -76.55855906 273.76914936 -87.75 263.3125 C-88.72195312 262.44238281 -89.69390625 261.57226562 -90.6953125 260.67578125 C-102.31447032 249.9481563 -109.22613361 237.4452766 -113.75 222.3125 C-114.06839844 221.30574219 -114.38679687 220.29898438 -114.71484375 219.26171875 C-117.06980259 211.06819837 -116.75 205.39641499 -116.75 196.3125 C-93.98 196.3125 -71.21 196.3125 -47.75 196.3125 C-47.09 201.9225 -46.43 207.5325 -45.75 213.3125 C-41.48129922 223.94069377 -37.49375059 230.82296566 -26.94140625 235.578125 C-17.82323915 239.0917742 -9.2512844 239.54614391 0.4375 239.625 C1.60603516 239.65400391 2.77457031 239.68300781 3.97851562 239.71289062 C14.22789343 239.7872029 23.54963682 237.74198655 31.58984375 231.0390625 C37.51990703 224.87179669 37.79719091 217.64758794 37.73193359 209.4921875 C37.51680164 203.83585271 36.42952562 200.08178843 33.25 195.3125 C32.81300781 194.28576172 32.81300781 194.28576172 32.3671875 193.23828125 C30.96980393 190.82950467 29.77795395 190.39789674 27.25 189.3125 C25.89334845 188.44135769 24.53945987 187.56590587 23.1875 186.6875 C11.12761026 179.46203784 -2.42306203 175.01286715 -15.625 170.375 C-48.23694366 158.90363852 -84.45078064 144.66986231 -101.125 112.0625 C-106.22356317 101.24394214 -107.9434358 92.12254678 -108 80.1875 C-108.020625 79.12273437 -108.04125 78.05796875 -108.0625 76.9609375 C-108.14622464 59.71366237 -101.81515692 44.78995382 -89.95239258 32.38769531 C-76.08641589 18.4670814 -59.23220613 9.7268749 -40.375 4.625 C-39.63290283 4.42237549 -38.89080566 4.21975098 -38.1262207 4.01098633 C-25.50489361 0.76387663 -12.96036939 -0.06910898 0 0 Z " fill="#FDFEFE" transform="translate(260.75,109.6875)"/>
</svg>
